<svg width="25" height="25" xmlns="http://www.w3.org/2000/svg">
 <!-- Created with Method Draw - http://github.com/duopixel/Method-Draw/ -->
 <g>
  <title>background</title>
  <rect fill="none" id="canvas_background" height="27" width="27" y="-1" x="-1"/>
  <g display="none" overflow="visible" y="0" x="0" height="100%" width="100%" id="canvasGrid">
   <rect fill="url(#gridpattern)" stroke-width="0" y="0" x="0" height="100%" width="100%"/>
  </g>
 </g>
 <g>
  <title>Layer 1</title>
  <g id="svg_112">
   <rect id="svg_7" height="22" width="2" y="1.5" x="2.566519" stroke-opacity="null" stroke-width="0.5" stroke="#000" fill="#ffffff"/>
   <rect id="svg_8" height="22" width="2" y="1.5" x="20.433482" stroke-opacity="null" stroke-width="0.5" stroke="#000" fill="#ffffff"/>
   <rect stroke="#000" id="svg_48" height="8" width="15.61807" y="2.344435" x="4.625046" stroke-width="0.5" fill="#ffffff"/>
   <rect id="svg_94" height="2.053388" width="2" y="2.58021" x="4.774943" stroke-width="0.5" fill="#000"/>
   <rect id="svg_95" height="2.053388" width="2" y="4.520437" x="6.71517" stroke-width="0.5" fill="#000"/>
   <rect id="svg_96" height="2.053388" width="2" y="2.58021" x="8.70771" stroke-width="0.5" fill="#000"/>
   <rect id="svg_97" height="2.053388" width="2" y="4.520437" x="10.647936" stroke-width="0.5" fill="#000"/>
   <rect id="svg_98" height="2.053388" width="2" y="6.366471" x="4.774943" stroke-width="0.5" fill="#000"/>
   <rect id="svg_99" height="2.053388" width="2" y="8.306697" x="6.71517" stroke-width="0.5" fill="#000"/>
   <rect id="svg_100" height="2.053388" width="2" y="6.366471" x="8.70771" stroke-width="0.5" fill="#000"/>
   <rect id="svg_101" height="2.053388" width="2" y="8.306697" x="10.647936" stroke-width="0.5" fill="#000"/>
   <rect id="svg_102" height="2.053388" width="2" y="2.58021" x="12.6298" stroke-width="0.5" fill="#000"/>
   <rect id="svg_103" height="2.053388" width="2" y="4.520437" x="14.570027" stroke-width="0.5" fill="#000"/>
   <rect id="svg_104" height="2.053388" width="2" y="2.58021" x="16.562567" stroke-width="0.5" fill="#000"/>
   <rect id="svg_105" height="2.053388" width="2" y="4.520437" x="18.461725" stroke-width="0.5" fill="#000"/>
   <rect id="svg_106" height="2.053388" width="2" y="6.366471" x="12.6298" stroke-width="0.5" fill="#000"/>
   <rect id="svg_107" height="2.053388" width="2" y="8.306697" x="14.570027" stroke-width="0.5" fill="#000"/>
   <rect id="svg_108" height="2.053388" width="2" y="6.366471" x="16.562567" stroke-width="0.5" fill="#000"/>
   <rect id="svg_109" height="2.053388" width="2" y="8.306697" x="18.502793" stroke-width="0.5" fill="#000"/>
  </g>
 </g>
</svg>